<svg xmlns="http://www.w3.org/2000/svg" xmlns:xlink="http://www.w3.org/1999/xlink" xml:space="preserve" style="background:#fff" viewBox="0 0 235 235">
  <defs>
    <path id="a" d="M11.128 36.309H223.872V198.691H11.128z"/>
  </defs>
  <clipPath id="b">
    <use xlink:href="#a" overflow="visible"/>
  </clipPath>
  <path fill="#004C46" d="M17.182 193.305c6.064-14.851 8.358-23.423 8.358-43.696V84.798c0-20.499-2.295-28.857-8.358-43.696v-.428h54.36v.428c-6.064 14.839-8.573 23.625-8.573 43.696v27.02h60.008v-27.02c0-20.284-2.307-28.857-8.573-43.696v-.428h54.361v.428c-5.862 14.839-8.371 23.625-8.371 43.696v64.812c0 20.071 2.509 28.845 8.371 43.696v.416h-54.361v-.416c6.266-14.851 8.573-23.423 8.573-43.696v-29.103H62.97v29.103c0 20.071 2.509 28.845 8.573 43.696v.416h-54.36V193.305zM186.003 177.206c0-9.619 7.943-17.561 17.561-17.561 9.619 0 17.561 7.943 17.561 17.561 0 9.619-7.943 17.561-17.561 17.561C193.946 194.767 186.003 186.825 186.003 177.206" clip-path="url(#b)"/>
</svg>
