<?xml version="1.0" standalone="no"?>
<!DOCTYPE svg PUBLIC "-//W3C//DTD SVG 20010904//EN"
 "http://www.w3.org/TR/2001/REC-SVG-20010904/DTD/svg10.dtd">
<svg version="1.0" xmlns="http://www.w3.org/2000/svg"
 width="600.000000pt" height="600.000000pt" viewBox="0 0 600.000000 600.000000"
 preserveAspectRatio="xMidYMid meet">
<metadata>
Created by potrace 1.11, written by Peter Selinger 2001-2013
</metadata>
<g transform="translate(0.000000,600.000000) scale(0.100000,-0.100000)"
fill="#000000" stroke="none">
<path d="M2798 5996 c-1 -2 -37 -6 -78 -10 -41 -3 -86 -8 -100 -11 -14 -2 -43
-6 -65 -9 -213 -28 -511 -113 -730 -206 -722 -310 -1289 -883 -1597 -1615 -57
-135 -137 -392 -164 -530 -48 -244 -58 -346 -58 -615 0 -192 4 -279 18 -375 3
-16 7 -48 10 -70 3 -22 14 -87 26 -145 27 -135 27 -133 46 -199 9 -31 17 -60
19 -66 9 -41 19 -72 26 -80 4 -5 8 -14 8 -20 2 -15 11 -48 21 -70 4 -11 16
-40 25 -65 24 -65 40 -101 107 -237 226 -466 591 -882 1023 -1168 136 -90 169
-109 325 -189 152 -77 355 -158 480 -192 88 -24 209 -55 225 -58 152 -29 213
-39 340 -54 78 -9 523 -9 595 0 133 17 222 31 280 43 14 3 39 8 55 11 17 2 48
10 70 16 22 5 45 11 50 12 135 30 398 128 569 213 305 151 542 321 781 558
152 151 203 208 307 349 37 50 72 96 78 103 5 7 10 14 10 17 0 3 20 36 44 73
91 143 179 317 249 494 41 104 102 288 111 335 2 10 9 37 14 59 6 22 13 51 16
65 2 14 11 63 20 110 36 199 40 251 41 515 0 205 -6 341 -18 400 -3 11 -8 47
-13 80 -4 33 -8 62 -9 65 0 3 -4 23 -8 45 -23 116 -57 245 -102 380 -21 62
-34 97 -77 210 -31 81 -175 352 -239 450 -72 110 -202 285 -269 360 -86 98
-277 280 -377 359 -103 83 -276 203 -373 260 -63 37 -348 177 -379 186 -14 5
-51 18 -81 30 -62 24 -130 47 -175 60 -119 33 -267 69 -305 75 -25 4 -54 9
-65 11 -45 9 -73 13 -130 20 -33 3 -69 8 -80 11 -22 5 -491 13 -497 9z m-287
-1203 c7 -57 5 -65 -20 -74 -94 -34 -137 -103 -156 -249 -9 -75 -18 -402 -19
-740 l-1 -355 685 1 685 0 -1 410 c-1 598 -11 734 -55 829 -23 49 -87 105
-121 105 -14 0 -18 8 -18 40 l0 40 630 0 630 0 0 -40 c0 -30 -4 -40 -16 -40
-29 0 -85 -41 -110 -81 -26 -41 -50 -122 -58 -199 -28 -236 -28 -2550 -1
-2855 7 -82 32 -172 59 -220 27 -45 47 -61 101 -81 25 -9 30 -17 31 -45 1 -19
-2 -36 -6 -39 -6 -4 -1228 -5 -1276 -1 -6 1 -10 18 -9 38 1 33 4 38 30 43 43
9 69 25 99 61 76 90 89 226 90 923 l1 399 -677 -1 c-372 0 -680 -2 -685 -5
-10 -7 -9 -677 1 -902 10 -223 20 -295 50 -361 26 -56 72 -98 126 -111 31 -8
35 -13 37 -46 2 -29 -2 -37 -15 -38 -97 -5 -1251 -3 -1264 3 -11 5 -16 18 -14
40 2 25 8 33 28 39 89 23 148 126 162 279 29 313 30 2631 1 2885 -17 154 -76
256 -156 272 -26 5 -29 9 -27 44 l1 39 629 0 c345 0 628 -3 629 -7z"/>
</g>
</svg>
