<svg xmlns="http://www.w3.org/2000/svg" viewBox="0 0 50.1 49.9"><ellipse fill="#fff" cx="25.1" cy="24.9" rx="25.1" ry="24.9"/><path fill="#2A5429" d="M25.1 3c-12.1 0-21.9 9.8-21.9 21.9s9.8 21.9 21.9 21.9c12.1 0 21.9-9.8 21.9-21.9s-9.8-21.9-21.9-21.9zm11.7 33.8h-8.7v-.5c.7-.1 1.1-.6 1.3-1.5.1-.8.2-2.9.2-6.3v-1.5h-9.1v1.4c0 3.5.1 5.6.2 6.3.1.9.6 1.4 1.3 1.5v.5h-8.600000000000001v-.5c.7-.1 1.1-.6 1.3-1.7.1-.9.2-3.6.2-8.2v-3.7c0-4.2-.1-6.8-.2-7.6-.1-1.1-.5-1.6-1.2-1.7v-.5h8.399999999999999v.5c-.6.1-1 .6-1.2 1.5-.1.8-.2 2.9-.2 6.4v1.1h9.1v-1.1c0-3.5-.1-5.6-.2-6.3-.1-.9-.5-1.4-1.1-1.5v-.5h8.3v.5c-.6.1-.9.6-1.1 1.7-.1.9-.2 3.4-.2 7.6v3.7c0 4.5.1 7.3.2 8.2.1 1.1.6 1.7 1.3 1.7v.5z"/></svg>