<svg xmlns="http://www.w3.org/2000/svg" viewBox="0 0 674.2 33.8" width="391" height="23"><path fill="#fff" d="M664.3 13.4c-2.4 0-3.8 1.5-3.8 3.5 0 1.2.8 2.3 2.1 3.3 1 .8 1.6 1.8 1.6 2.7 0 1.1-.7 1.8-1.7 1.8-.9 0-1.7-.7-2.1-2-.1-.4-.4-.7-.8-.7-.7 0-1.2.6-1.2 1.3 0 1 1.3 2.2 3.5 2.2 2.5 0 4.1-1.6 4.1-3.5 0-1.3-.6-2.3-2.2-3.6-1.4-1.2-1.7-1.9-1.7-2.6 0-.8.6-1.5 1.5-1.5.8 0 1.4.5 1.9 1.6.1.3.3.5.7.5.5 0 1.1-.4 1.1-1.1 0-.8-.9-1.9-3-1.9m-9.2.3c-.7 2.4-1.1 3.6-1.7 5.1-1 2.4-3.1 5.5-5 5.5-.8 0-.9-.7-.6-2.1l2.3-8.7-.1-.1-4.3.7-.1.6 1.5.1c.6 0 .5.4.4 1.1l-1.6 6.2c-.5 1.9-.3 3.4 1.6 3.4 2.3 0 4.7-2.5 6.1-5.2l-.8 2.7c-.4 1.6-.2 2.5 1.1 2.5 1.7 0 3.1-1.6 3.9-3.4l-.6-.4c-.5.8-1.5 2.5-2.2 2.5-.5 0-.5-.5-.3-1.3l2.5-9.6-2.1.4zm-22.9 16.9l1.3-5.6c.5.3 1.3.5 2.5.5 5.8 0 7.3-7.1 7.3-8.9 0-2-.9-3.1-2.6-3.1-1.8 0-4.1 1.7-5.9 5.1h-.1l1.3-5-.1-.1-4.3.7-.1.6 1.5.1c.6 0 .5.4.4 1.1l-3.3 15 2.1-.4zm3.6-6c-.9 0-1.5-.3-2.1-.7.3-1.5 1-3.9 1.9-5.5 1.1-2 2.8-3.9 4.2-3.9.8 0 1.3.7 1.3 2-.1 1.9-1.5 8.1-5.3 8.1m-24.1.6c.7-2.4 1.1-3.8 1.5-5 .8-2 3.1-5.6 5-5.6.7 0 1.1.5.7 2l-1.7 6.6-.6 2.3 2-.3c.7-2.4 1.1-3.8 1.7-5.2.9-2 3-5.4 5-5.4.8 0 1.1.6.8 1.6l-2 6.9c-.4 1.5 0 2.3 1.2 2.3 1.7 0 3-1.6 3.8-3.4l-.6-.3c-.4.8-1.5 2.5-2.1 2.5-.5 0-.4-.5-.2-1.3l1.8-6.2c.5-1.9.2-3.4-1.7-3.4-2.1 0-4.3 1.9-5.9 5h-.1l.5-1.5c.7-2.3.2-3.5-1.4-3.5-2.2 0-4.3 2-6 5h-.1l1.5-4.9-.1-.1-4.3.7-.1.6 1.4.1c.6 0 .5.4.3 1.1l-2.4 9.6 2.1-.2zm-5.9-11.6l-.1.3c-.4-.3-1.1-.5-1.7-.5-5.6 0-8.3 6.2-8.3 9.3 0 1.4.7 2.8 2.3 2.8 2.5 0 4.7-2.9 6.1-5.3l-.8 2.7c-.5 1.7-.2 2.6 1 2.6 1.8 0 3.1-1.6 3.9-3.4l-.6-.3c-.4.8-1.5 2.5-2.1 2.5-.5 0-.4-.5-.2-1.3l2.5-9.4h-2zm-.3 1.1c-.4 1.7-1.3 4.1-2.5 5.9-1.3 2-2.7 3.6-3.9 3.6-.8 0-1-.7-1-1.6 0-2.6 2.3-8.4 6-8.4.5 0 1 .2 1.4.5m-11.5 6.1c-1.3 2.4-2.5 3.9-5.4 3.9-2.7 0-4.7-1.8-4.7-5.4 0-2.1.6-4.7 1.7-6.6 1.2-2 3-3.3 5.5-3.3 2.9 0 3.9 1.4 3.8 3.9h.7l.8-3.5c-1.3-.8-3.5-1.2-5.2-1.2-4.4 0-7 2.1-8.3 4.3-1.3 2.1-1.6 4.3-1.6 5.9 0 3.1 1.5 6.8 7.4 6.8 1.7 0 3.3-.2 4.8-1l1.1-3.7h-.6zm-29.8-6.3l.1.6h1.6c.5 0 .6.4.8 1.6.3 1.8.8 6.3.8 8.2 0 .7 0 1.7-.6 2.9-.4 1-1 1.7-1.5 1.7-.4 0-.6-.3-1-.7-.3-.4-.5-.6-.8-.6-.6 0-1.2.7-1.2 1.4 0 .6.7 1.3 1.7 1.3 2 0 2.9-1.5 4.9-5 .5-.8 1.9-3.3 3.3-5.7 1.3-2.2 2.8-4.5 2.8-5.4 0-.8-.3-1.3-.4-1.3-.4 0-1.2.2-1.8.6 0 .8 0 2.3-.3 3.2-.4 1.3-1.8 3.9-3.3 6.5h-.1c-.2-3.6-.6-8.5-.9-10.3l-.2-.1-3.9 1.1zm.3.1l.3-.9h-3l.8-2.8-.3-.2-2.3 1.8-.3 1.2h-1.9l-.3.9h1.9l-2.1 8.6c-.4 1.3-.1 2.3 1.1 2.3 1.9 0 3.4-1.5 4.3-3.3l-.5-.4c-.5.9-1.7 2.5-2.5 2.5-.5 0-.5-.5-.4-1.1l2.1-8.6h3.1zm-10.2-6.2c-1 0-1.5.8-1.5 1.5 0 .9.6 1.3 1.3 1.3.9 0 1.5-.6 1.5-1.6 0-.8-.6-1.2-1.3-1.2m-4.1 5.6l-.1.6 1.3.1c.6 0 .7.3.5 1.1l-2 7.3c-.4 1.3 0 2.3 1.2 2.3 1.7 0 3-1.6 3.8-3.4l-.6-.3c-.4.8-1.5 2.5-2.1 2.5-.5 0-.4-.5-.2-1.3l2.6-9.4-.1-.1-4.3.6zm-5.1-.6c-2.4 0-3.8 1.5-3.8 3.5 0 1.2.8 2.3 2.1 3.3 1 .8 1.6 1.8 1.6 2.7 0 1.1-.7 1.8-1.7 1.8-.9 0-1.7-.7-2.1-2-.1-.4-.4-.7-.8-.7-.7 0-1.2.6-1.2 1.3 0 1 1.3 2.2 3.5 2.2 2.5 0 4.1-1.6 4.1-3.5 0-1.3-.6-2.3-2.2-3.6-1.4-1.2-1.7-1.9-1.7-2.6 0-.8.6-1.5 1.5-1.5.8 0 1.4.5 1.9 1.6.1.3.3.5.7.5.5 0 1.1-.4 1.1-1.1 0-.8-.9-1.9-3-1.9m-12.2 11.8c.4-1.5.8-3.4 1.2-4.8.8-3.1 2-5.1 2.9-5.1l1.6.6c.6 0 1.1-.8 1.1-1.5 0-.6-.3-1-1.1-1-1.3 0-2.9 1.5-4.2 4l1.1-3.9-.1-.1-4 .7-.1.6 1.5.1c.6 0 .5.4.4 1.1l-2.2 9.6 1.9-.3zm-10.8-5.3c.4-2.8 2.2-5.7 4-5.7.8 0 1.4.6 1.4 1.4 0 1.6-1.4 3.4-5.4 4.3m6 1.7c-.8 1.1-2.1 2.7-3.9 2.7-1.6 0-2.1-1.4-2.1-3.3v-.4c3.9-.8 5.7-1.7 6.7-2.7.8-.8 1-1.6 1-2.3 0-1.2-1-2.3-2.9-2.3-2.1 0-3.9 1.1-5.1 2.7-1.2 1.5-1.9 3.6-1.9 5.5 0 3.3 2.1 3.9 3.5 3.9 1.7 0 3.8-.8 5.4-3.4l-.7-.4zm-19.2-7.6l-.1.6 1.5.1c.5 0 .5.4.4 1.1l-1.4 6.5c-.5 2.1.3 3.1 1.6 3.1 2 0 4.1-1.9 5.7-4.1 1.6-2.2 2.7-4.7 2.7-6.2 0-.9-.5-1.8-.7-1.8-.6 0-1.2.2-1.7.5.2.8.3 1.7.3 2.9-.2 3.2-3.2 7.5-5.1 7.4-.6 0-1-.5-.8-1.6l2-9.1-.1-.1-4.3.7zm-3.1-5.6c-1 0-1.5.8-1.5 1.5 0 .9.6 1.3 1.3 1.3.9 0 1.5-.6 1.5-1.6 0-.8-.6-1.2-1.3-1.2m-4.1 5.6l-.1.6 1.3.1c.6 0 .7.3.5 1.1l-2 7.3c-.4 1.3 0 2.3 1.2 2.3 1.7 0 3-1.6 3.8-3.4l-.6-.3c-.4.8-1.5 2.5-2.1 2.5-.5 0-.4-.5-.2-1.3l2.6-9.4-.1-.1-4.3.6zm-13.3 11.2c.7-2.4 1.1-3.7 1.7-5.1.9-2 3.1-5.4 5-5.4.8 0 1 .8.8 1.7l-2 6.9c-.4 1.3-.1 2.3 1.2 2.3 1.8 0 3.1-1.6 3.9-3.4l-.6-.3c-.4.8-1.5 2.5-2.1 2.5-.5 0-.4-.5-.2-1.3l1.8-6.2c.5-1.9.3-3.4-1.7-3.4-2.3 0-4.7 2.5-6.1 5.2h-.1l1.5-5.1-.1-.1-4.3.7-.1.6 1.5.1c.6 0 .6.4.4 1.1l-2.5 9.6 2-.4zm-17.6-16.3l-.2.7 1.4.1c.5 0 .7.4.5 1.1l-2 8.3c-1.1 4.7 1.4 6.4 5.5 6.4 3.2 0 6.1-.7 7.4-6.1l2-8.5c.2-.8.4-1.1 1-1.1l1.3-.1.2-.7h-6.4l-.2.7 1.4.1c.5 0 .7.4.5 1.1l-1.9 8.2c-.7 3.1-1.9 5.6-5.1 5.6-2.6 0-4.2-1.4-3.2-5.8l1.9-8c.2-.8.4-1.1 1-1.2l1.3-.1.2-.7h-6.6zm-16 11c.4-2.8 2.2-5.7 4-5.7.8 0 1.4.6 1.4 1.4 0 1.6-1.4 3.4-5.4 4.3m5.9 1.7c-.8 1.1-2.1 2.7-3.9 2.7-1.6 0-2.1-1.4-2.1-3.3v-.4c3.9-.8 5.7-1.7 6.7-2.7.8-.8 1-1.6 1-2.3 0-1.2-1-2.3-2.9-2.3-2.1 0-3.9 1.1-5.1 2.7-1.2 1.5-1.9 3.6-1.9 5.5 0 3.3 2.1 3.9 3.5 3.9 1.7 0 3.8-.8 5.4-3.4l-.7-.4zm-8.1-7l.3-.9h-3l.8-2.8-.3-.2-2.3 1.8-.3 1.2h-1.9l-.3.9h1.9l-2.1 8.6c-.4 1.3-.1 2.3 1.1 2.3 1.9 0 3.4-1.5 4.3-3.3l-.5-.4c-.5.9-1.7 2.5-2.5 2.5-.5 0-.5-.5-.4-1.1l2.1-8.6h3.1zm-11.6-1l-.1.3c-.4-.3-1.1-.5-1.7-.5-5.6 0-8.3 6.2-8.3 9.3 0 1.4.7 2.8 2.3 2.8 2.5 0 4.7-2.9 6.1-5.3l-.8 2.7c-.5 1.7-.2 2.6 1 2.6 1.8 0 3.1-1.6 3.9-3.4l-.6-.3c-.4.8-1.5 2.5-2.1 2.5-.5 0-.4-.5-.2-1.3l2.5-9.4h-2zm-.4 1.1c-.4 1.7-1.3 4.1-2.5 5.9-1.3 2-2.8 3.6-3.9 3.6-.8 0-1-.7-1-1.6 0-2.6 2.3-8.4 6-8.4.6 0 1.1.2 1.4.5m-9.2-.1l.3-.9h-3l.8-2.8-.3-.2-2.3 1.8-.3 1.2h-1.9l-.3.9h1.9l-2.1 8.6c-.4 1.3-.1 2.3 1.1 2.3 1.9 0 3.4-1.5 4.3-3.3l-.5-.4c-.5.9-1.7 2.5-2.5 2.5-.5 0-.5-.5-.4-1.1l2.1-8.6h3.1zm-9.2-1.5l.8-3.3c-1-.8-2.7-1.2-4.2-1.2-4.1 0-5.4 2.7-5.4 4.6 0 2.2 1.5 3.4 3.4 4.3 1.9.9 3 1.9 3 3.8 0 1.7-1.2 3.4-3.5 3.4-2.2 0-4-1.6-3.9-4.7h-.7l-.6 3.6c.9 1.2 3.2 1.9 4.9 1.9 4.6 0 5.9-2.7 5.9-5.2 0-2.1-1.1-3.5-3.5-4.7-1.4-.7-3-1.5-3-3.3 0-1.7 1.2-3 3.3-3 2.3 0 3.1 1.2 2.8 3.7h.7zm-19.5.5l-.1.3c-.4-.3-1.1-.5-1.7-.5-5.6 0-8.3 6.2-8.3 9.3 0 1.4.7 2.8 2.3 2.8 2.5 0 4.7-2.9 6.1-5.3l-.8 2.7c-.5 1.7-.2 2.6 1 2.6 1.8 0 3.1-1.6 3.9-3.4l-.6-.3c-.4.8-1.5 2.5-2.1 2.5-.5 0-.4-.5-.2-1.3l2.5-9.4h-2zm-.3 1.1c-.4 1.7-1.3 4.1-2.5 5.9-1.3 2-2.7 3.6-3.9 3.6-.8 0-1-.7-1-1.6 0-2.6 2.3-8.4 6-8.4.5 0 1 .2 1.4.5m-11.5-6.3c-1 0-1.5.8-1.5 1.5 0 .9.6 1.3 1.3 1.3.9 0 1.5-.6 1.5-1.6-.1-.8-.7-1.2-1.3-1.2m-4.2 5.6l-.1.6 1.3.1c.6 0 .7.3.5 1.1l-2 7.3c-.4 1.3 0 2.3 1.2 2.3 1.7 0 3-1.6 3.8-3.4l-.6-.3c-.4.8-1.5 2.5-2.1 2.5-.5 0-.4-.5-.2-1.3l2.6-9.4-.1-.1-4.3.6zm-13.2 11.2c.7-2.4 1.1-3.7 1.7-5.1.9-2 3.1-5.4 5-5.4.8 0 1 .8.8 1.7l-2 6.9c-.4 1.3-.1 2.3 1.2 2.3 1.8 0 3.1-1.6 3.9-3.4l-.6-.3c-.4.8-1.5 2.5-2.1 2.5-.5 0-.4-.5-.2-1.3l1.8-6.2c.5-1.9.3-3.4-1.7-3.4-2.3 0-4.7 2.5-6.1 5.2h-.1l1.5-5.1-.1-.1-4.3.7-.1.6 1.5.1c.6 0 .6.4.4 1.1l-2.5 9.6 2-.4zm-9.4 0c.4-1.5.8-3.4 1.2-4.8.8-3.1 2-5.1 2.9-5.1l1.6.6c.6 0 1.1-.8 1.1-1.5 0-.6-.3-1-1.1-1-1.3 0-2.9 1.5-4.2 4l1.1-3.9-.1-.1-4 .7-.1.6 1.5.1c.6 0 .5.4.4 1.1l-2.2 9.6 1.9-.3zm-8.2-11.8c-5.6 0-6.9 5.8-6.9 7.8 0 2.5 1.4 4.2 4.3 4.2 2.6 0 4.2-1.3 5.3-3 1.1-1.7 1.5-3.7 1.5-5 0-3.1-2.3-4-4.2-4m0 .8c1.4 0 2 1 2 2.5 0 1.7-1.2 8-4.4 8-1.4 0-2.1-.8-2.1-2.5-.1-2.6 1.4-8 4.5-8m-6.1-.5h-3.1l.7-2.7c.4-1.8.9-2.4 1.5-2.4s1.1.5 1.6 1.6c.1.2.3.4.6.4.5 0 1.2-.4 1.2-1 0-1-1.3-1.8-2.7-1.8-1.5 0-2.5.6-3.3 1.6-.7.9-1.2 2.2-1.5 3.4l-.2.9h-2l-.3.9h2.1l-2.7 13.8c-.3 1.5-.5 1.6-.8 1.6-.3 0-.6-.2-1.2-1.1-.2-.2-.3-.5-.6-.5-.5 0-1.1.6-1.1 1.2 0 .8 1 1.4 2.1 1.4 2.3 0 3.3-1.9 4.3-6.4l2.2-9.9h3l.2-1zm-10.3-5.3c-1 0-1.5.8-1.5 1.5 0 .9.6 1.3 1.3 1.3.9 0 1.5-.6 1.5-1.6-.1-.8-.7-1.2-1.3-1.2m-4.2 5.6l-.1.6 1.3.1c.6 0 .7.3.5 1.1l-2 7.3c-.4 1.3 0 2.3 1.2 2.3 1.7 0 3-1.6 3.8-3.4l-.6-.3c-.4.8-1.5 2.5-2.1 2.5-.5 0-.4-.5-.2-1.3l2.6-9.4-.1-.1-4.3.6zm-6-5.7l-.1.5 1.3.2c.6.1.7.2.5 1.1l-3.2 13c-.3 1.3 0 2.3 1.2 2.3 1.6 0 3.1-1.6 3.8-3.4l-.6-.3c-.5 1.1-1.6 2.5-2.2 2.5-.4 0-.4-.5-.2-1.3l3.8-15.1-.1-.1-4.2.6zm-5.8 5.3l-.1.3c-.4-.3-1.1-.5-1.7-.5-5.6 0-8.3 6.2-8.3 9.3 0 1.4.7 2.8 2.3 2.8 2.5 0 4.7-2.9 6.1-5.3l-.8 2.7c-.5 1.7-.2 2.6 1 2.6 1.8 0 3.1-1.6 3.9-3.4l-.6-.3c-.4.8-1.5 2.5-2.1 2.5-.5 0-.4-.5-.2-1.3l2.5-9.4h-2zm-.3 1.1c-.4 1.7-1.3 4.1-2.5 5.9-1.3 2-2.8 3.6-3.9 3.6-.8 0-1-.7-1-1.6 0-2.6 2.3-8.4 6-8.4.5 0 1 .2 1.4.5m-11.5 6.1c-1.3 2.4-2.5 3.9-5.4 3.9-2.7 0-4.7-1.8-4.7-5.4 0-2.1.6-4.7 1.7-6.6 1.2-2 3-3.3 5.5-3.3 2.9 0 3.9 1.4 3.8 3.9h.7l.8-3.5c-1.3-.8-3.5-1.2-5.2-1.2-4.4 0-7 2.1-8.3 4.3-1.3 2.1-1.6 4.3-1.6 5.9 0 3.1 1.5 6.8 7.3 6.8 1.7 0 3.3-.2 4.8-1l1.2-3.7h-.6zm-24.3-2.8h-4.7c1.2-2.3 2.5-4.6 3.8-6.9l.9 6.9zm4.4 7.2l.1-.7-.9-.1c-.7-.1-.8-.4-.9-1.4l-1.7-14.1h-1.7l-3.9 6.9c-1.2 2.1-3.1 5.6-4 7-.8 1.2-1.1 1.5-1.9 1.5l-.8.1-.1.7h5.3l.1-.7-1.3-.1c-.5 0-.5-.4-.3-.9.8-1.5 1.5-3 2.4-4.6h5.3l.5 4.6c.1.7-.1.9-.6.9l-1.2.1-.1.7h5.7z"/></svg>