<svg xmlns="http://www.w3.org/2000/svg" viewBox="0 0 173 93" width="173" height="93"><g fill="#fff"><path d="M60.2 35.8c-1.3 0-1.8-.1-2.8-.1-3.5 0-7 1.8-9.3 4.4-3.2 3.7-11.6 16.8-11.6 21.9v.3c-.3.2-.7.3-1.1.3-1.5 0-1.8-1.5-1.8-2.6 0-3.3 3.7-8.5 5.5-11.3-7.3 5.4-17.2 9.9-26.5 9.9-7.3.1-12.6-3.7-12.6-11.4 0-19.5 29.8-47.2 48.8-47.2 4.3 0 8.7 2.3 8.7 7.1 0 2.1-.6 5.5-3.2 5.5-.4 0-.9-.2-.9-.7 0-1.4 1-2.6 1-4.2 0-3.7-2.8-6.1-6.4-6.1-17 .1-44.2 30.7-44.2 47.5 0 4.9 3.8 7.4 8.4 7.4 10 0 21.5-6.2 29.7-11.7 1.8-2.8 3.8-5.5 5.3-8.5-.8-.3-1.8-.3-2.5-.3-7 0-12.9 3.3-17.2 3.3-.9 0-3.7-.7-3.7-2 0-.8 1.9-1.4 2.5-1.6 6.7-1.9 15.1-2.1 22.9-2.1h8c1.8 0 5.3 0 5.3 1.2v.3c-.7.6-1.2.7-2.3.7zM59.6 54.5c0 .6.1 1.6.9 1.6 2.7 0 8.2-7.4 9.4-7.6-.4 2-7.4 9.9-9.5 9.9-2 0-3.1-2.8-3.1-4.5 0-4.7 7.7-23.7 12.7-23.7.8 0 1.4.7 1.4 1.6 0 3.6-11.8 14.4-11.8 22.7zm14-27.8c-.5-.6-1.1-1.5-1.1-2.4 0-1.5 3.1-2.2 4.2-2.8l1.9.3c-.1 1.4-3.6 4.9-5 4.9zM98.2 26.5c-6.7 8.1-16.9 22.5-20.4 32.3-.3.9-.6 2.6-2 2.6-.8 0-1.5-.5-1.5-1.4 0-.9.4-1.8.6-2.7 1.7-6.2 3.3-13.2 3.3-19.6 0-3.2.2-2.8-.5-6.2-.2-1.1-.8-3.1.8-3.2v-.2c2.6.5 2.8 2.8 2.8 4.7 0 6.4-1.3 10.3-2.5 16.4v-.1c3.3-4.5 19.1-28.4 23.3-28.4.4 0 .4.1.4.4.1.9-3.6 4.6-4.3 5.4zM93.2 54.5c0 .6.1 1.6.9 1.6 2.7 0 8.2-7.4 9.4-7.6-.4 2-7.4 9.9-9.5 9.9-2 0-3.1-2.8-3.1-4.5 0-4.7 7.7-23.7 12.7-23.7.8 0 1.4.7 1.4 1.6 0 3.6-11.8 14.4-11.8 22.7zm14-27.8c-.5-.6-1.1-1.5-1.1-2.4 0-1.5 3.1-2.2 4.2-2.8l1.9.3c-.1 1.4-3.6 4.9-5 4.9zM127.9 51.7c0 .9.2 2.2 1.5 2.2 1.5 0 3.4-1.6 4.3-2.7l.1.4c0 2-2.9 3.8-4.7 3.8-2.6 0-3.2-3.2-3.2-5.3 0-4.3 2.1-9.6 3.7-13.6-4.8 3.2-15.9 15.1-18.5 20.2-.3.7-.9 1.4-1.8 1.4-1.3 0-1.8-1.1-1.8-2.2 0-.6.1-1.4.3-2 .7-2.7 2.4-5 3.7-7.5 3.2-6.3 6-12.6 8.4-19.3h-.2c-2.9 0-14.5 15.4-15.5 15.6v-.2c0-2 14-17.5 16.3-17.5 1.8 0 2.8 1.3 2.8 2.9 0 7.6-12.1 19.4-13.1 26.5 2.1-3.4 22.6-24.4 24.6-24.4.8 0 1.4.9 1.4 1.7-.1 3-8.3 14.1-8.3 20zM171.7 28.9v-.6c0-1.9-.9-3.2-3-3.2-10.9 0-26.5 20.1-29.9 29.5-.1.2-.2.5-.2.7 0 .3.2.5.5.5 3.7 0 22.2-19.9 23.5-19.9 1.8 0 2.4 1.1 2.4 2.8 0 8-18 37.3-23.5 44-4.1 4.9-11.9 10.2-18.5 10.2-5.3 0-9-3.7-9-9 0-1.1 0-2.9.3-4.1 0-.1.1-.3.2-.3s.3.1.4.2c1.4 5 2.6 11.7 9.3 11.7 14.8 0 31.3-38.1 36.5-51.4-3 3.3-19.9 18.9-23.6 18.9-1.5 0-2.3-.7-2.3-2.2 0-4.1 6.1-13.8 8.8-17.1 6.6-8.2 14-16.1 25.4-16.1 2.3 0 3.9 1.4 3.9 3.7.1.9-.2 1.7-1.2 1.7z"/></g><g fill="#F8F3A5"><path d="M59.6 78.5v8.7c0 2 .1 2 3.1 2.2v1h-9.7v-1c3.1-.2 3.1-.3 3.1-2.2v-17.7c0-2-.1-2-3.1-2.2v-1h9.8v1c-3 .2-3.1.3-3.1 2.2v7.7h12.2v-7.7c0-2-.1-2-3.1-2.2v-1h9.8v1c-3 .2-3.1.3-3.1 2.2v17.7c0 2 .1 2 3.1 2.2v1h-9.8v-1c3.1-.2 3.1-.3 3.1-2.2v-8.7h-12.3zM81.3 83.2h1.1c.9 3.9 3 6.5 6.3 6.5 3.1 0 5-1.8 5-4.8 0-3.1-3.3-4.7-4.9-5.3l-.6-.2c-3.7-1.3-6.6-3.2-6.6-6.9 0-4.6 3.8-6.7 8-6.7 2.4 0 4.8.6 5.9 1.5v4.9h-1.1c-.6-3.5-2.2-5.2-5.2-5.2-2.9 0-4.5 1.9-4.5 4.4 0 2.1 2 3.6 4.3 4.5l1.1.4c4.1 1.5 6.9 3.5 6.9 7.6 0 3.6-2.4 7.1-8.6 7.1-2.4 0-5.3-.7-6.9-2.1l-.2-5.7zM124.7 66.2v1c-3 .2-3.1.3-3.1 2.2v12c0 2.1-.3 3.9-.9 5.2-1.6 3.5-5.3 4.3-8.7 4.3-3.4 0-7.1-.8-8.7-4.3-.6-1.2-.9-3-.9-5.1v-12c0-2-.1-2-3.1-2.2v-1h9.8v1c-3 .2-3.1.3-3.1 2.2v11.3c0 3.3.5 5.4 1.6 6.8 1.1 1.4 2.6 2.1 4.6 2.1 2 0 3.6-.7 4.6-2.1 1-1.4 1.6-3.5 1.6-6.8v-11.3c0-2-.1-2-3.1-2.2v-1h9.4z"/></g><g fill="#F8F3A5"><path d="M27 71.5v7.9c0 1.9.8 2.5 1.7 2.5.6 0 1.2-.1 1.8-.3l.2.5c-.7.5-2 1.1-3.3 1.1-.9 0-2.8-.3-2.8-2.9v-8.8h-1.8v-1h1.9l1.6-3.2h.7v3.2h3.3v1h-3.3zM44 76.7c0 4.1-2 6.5-6.1 6.5s-6.1-2.4-6.1-6.5 2-6.5 6.1-6.5c4.1-.1 6.1 2.3 6.1 6.5zm-6.1 5.6c2.4 0 3.5-2.1 3.5-5.6 0-3.5-1.1-5.6-3.5-5.6-2.3 0-3.4 2.1-3.4 5.6 0 3.5 1.1 5.6 3.4 5.6z"/></g></svg>